{
  "accessors": [
    {
      "bufferView": 2,
      "componentType": 5126,
      "count": 4,
      "max": [
        71.92579650878906,
        0.0,
        71.92579650878906
      ],
      "min": [
        -71.92579650878906,
        0.0,
        -71.92579650878906
      ],
      "type": "VEC3"
    },
    {
      "bufferView": 2,
      "byteOffset": 48,
      "componentType": 5126,
      "count": 4,
      "max": [
        0.0,
        -1.0,
        -0.0
      ],
      "min": [
        0.0,
        -1.0,
        -0.0
      ],
      "type": "VEC3"
    },
    {
      "bufferView": 1,
      "componentType": 5126,
      "count": 4,
      "max": [
        0.3301999866962433,
        1.0017999410629272
      ],
      "min": [
        0.16859999299049377,
        0.8402000069618225
      ],
      "type": "VEC2"
    },
    {
      "bufferView": 0,
      "componentType": 5125,
      "count": 6,
      "type": "SCALAR"
    },
    {
      "bufferView": 2,
      "byteOffset": 96,
      "componentType": 5126,
      "count": 4,
      "max": [
        71.92579650878906,
        0.0,
        71.92579650878906
      ],
      "min": [
        -71.92579650878906,
        0.0,
        -71.92579650878906
      ],
      "type": "VEC3"
    },
    {
      "bufferView": 2,
      "byteOffset": 144,
      "componentType": 5126,
      "count": 4,
      "max": [
        0.0,
        -1.0,
        -0.0
      ],
      "min": [
        0.0,
        -1.0,
        -0.0
      ],
      "type": "VEC3"
    },
    {
      "bufferView": 1,
      "byteOffset": 32,
      "componentType": 5126,
      "count": 4,
      "max": [
        0.8201000094413757,
        0.1842000037431717
      ],
      "min": [
        0.6585000157356262,
        0.022600000724196434
      ],
      "type": "VEC2"
    },
    {
      "bufferView": 0,
      "byteOffset": 24,
      "componentType": 5125,
      "count": 6,
      "type": "SCALAR"
    },
    {
      "bufferView": 2,
      "byteOffset": 192,
      "componentType": 5126,
      "count": 4,
      "max": [
        71.92579650878906,
        0.0,
        71.92579650878906
      ],
      "min": [
        -71.92579650878906,
        0.0,
        -71.92579650878906
      ],
      "type": "VEC3"
    },
    {
      "bufferView": 2,
      "byteOffset": 240,
      "componentType": 5126,
      "count": 4,
      "max": [
        0.0,
        -1.0,
        -0.0
      ],
      "min": [
        0.0,
        -1.0,
        -0.0
      ],
      "type": "VEC3"
    },
    {
      "bufferView": 1,
      "byteOffset": 64,
      "componentType": 5126,
      "count": 4,
      "max": [
        0.3301999866962433,
        1.0017999410629272
      ],
      "min": [
        0.16859999299049377,
        0.8402000069618225
      ],
      "type": "VEC2"
    },
    {
      "bufferView": 0,
      "byteOffset": 48,
      "componentType": 5125,
      "count": 6,
      "type": "SCALAR"
    },
    {
      "bufferView": 2,
      "byteOffset": 288,
      "componentType": 5126,
      "count": 4,
      "max": [
        71.92579650878906,
        0.0,
        71.92579650878906
      ],
      "min": [
        -71.92579650878906,
        0.0,
        -71.92579650878906
      ],
      "type": "VEC3"
    },
    {
      "bufferView": 2,
      "byteOffset": 336,
      "componentType": 5126,
      "count": 4,
      "max": [
        0.0,
        -1.0,
        -0.0
      ],
      "min": [
        0.0,
        -1.0,
        -0.0
      ],
      "type": "VEC3"
    },
    {
      "bufferView": 1,
      "byteOffset": 96,
      "componentType": 5126,
      "count": 4,
      "max": [
        0.16539999842643738,
        0.1842000037431717
      ],
      "min": [
        0.003800000064074993,
        0.022600000724196434
      ],
      "type": "VEC2"
    },
    {
      "bufferView": 0,
      "byteOffset": 72,
      "componentType": 5125,
      "count": 6,
      "type": "SCALAR"
    },
    {
      "bufferView": 2,
      "byteOffset": 384,
      "componentType": 5126,
      "count": 4,
      "max": [
        71.92579650878906,
        0.0,
        71.92579650878906
      ],
      "min": [
        -71.92579650878906,
        0.0,
        -71.92579650878906
      ],
      "type": "VEC3"
    },
    {
      "bufferView": 2,
      "byteOffset": 432,
      "componentType": 5126,
      "count": 4,
      "max": [
        0.0,
        -1.0,
        -0.0
      ],
      "min": [
        0.0,
        -1.0,
        -0.0
      ],
      "type": "VEC3"
    },
    {
      "bufferView": 1,
      "byteOffset": 128,
      "componentType": 5126,
      "count": 4,
      "max": [
        0.3301999866962433,
        1.0017999410629272
      ],
      "min": [
        0.16859999299049377,
        0.8402000069618225
      ],
      "type": "VEC2"
    },
    {
      "bufferView": 0,
      "byteOffset": 96,
      "componentType": 5125,
      "count": 6,
      "type": "SCALAR"
    },
    {
      "bufferView": 2,
      "byteOffset": 480,
      "componentType": 5126,
      "count": 4,
      "max": [
        71.92579650878906,
        0.0,
        71.92579650878906
      ],
      "min": [
        -71.92579650878906,
        0.0,
        -71.92579650878906
      ],
      "type": "VEC3"
    },
    {
      "bufferView": 2,
      "byteOffset": 528,
      "componentType": 5126,
      "count": 4,
      "max": [
        0.0,
        -1.0,
        -0.0
      ],
      "min": [
        0.0,
        -1.0,
        -0.0
      ],
      "type": "VEC3"
    },
    {
      "bufferView": 1,
      "byteOffset": 160,
      "componentType": 5126,
      "count": 4,
      "max": [
        0.820900022983551,
        0.3483999967575073
      ],
      "min": [
        0.6593000292778015,
        0.1868000030517578
      ],
      "type": "VEC2"
    },
    {
      "bufferView": 0,
      "byteOffset": 120,
      "componentType": 5125,
      "count": 6,
      "type": "SCALAR"
    },
    {
      "bufferView": 2,
      "byteOffset": 576,
      "componentType": 5126,
      "count": 4,
      "max": [
        71.92579650878906,
        0.0,
        71.92579650878906
      ],
      "min": [
        -71.92579650878906,
        0.0,
        -71.92579650878906
      ],
      "type": "VEC3"
    },
    {
      "bufferView": 2,
      "byteOffset": 624,
      "componentType": 5126,
      "count": 4,
      "max": [
        0.0,
        -1.0,
        -0.0
      ],
      "min": [
        0.0,
        -1.0,
        -0.0
      ],
      "type": "VEC3"
    },
    {
      "bufferView": 1,
      "byteOffset": 192,
      "componentType": 5126,
      "count": 4,
      "max": [
        0.3301999866962433,
        1.0017999410629272
      ],
      "min": [
        0.16859999299049377,
        0.8402000069618225
      ],
      "type": "VEC2"
    },
    {
      "bufferView": 0,
      "byteOffset": 144,
      "componentType": 5125,
      "count": 6,
      "type": "SCALAR"
    },
    {
      "bufferView": 2,
      "byteOffset": 672,
      "componentType": 5126,
      "count": 4,
      "max": [
        71.92579650878906,
        0.0,
        71.92579650878906
      ],
      "min": [
        -71.92579650878906,
        0.0,
        -71.92579650878906
      ],
      "type": "VEC3"
    },
    {
      "bufferView": 2,
      "byteOffset": 720,
      "componentType": 5126,
      "count": 4,
      "max": [
        0.0,
        -1.0,
        -0.0
      ],
      "min": [
        0.0,
        -1.0,
        -0.0
      ],
      "type": "VEC3"
    },
    {
      "bufferView": 1,
      "byteOffset": 224,
      "componentType": 5126,
      "count": 4,
      "max": [
        0.4918000102043152,
        0.3483999967575073
      ],
      "min": [
        0.3301999866962433,
        0.1868000030517578
      ],
      "type": "VEC2"
    },
    {
      "bufferView": 0,
      "byteOffset": 168,
      "componentType": 5125,
      "count": 6,
      "type": "SCALAR"
    },
    {
      "bufferView": 2,
      "byteOffset": 768,
      "componentType": 5126,
      "count": 4,
      "max": [
        71.92579650878906,
        0.0,
        71.92579650878906
      ],
      "min": [
        -71.92579650878906,
        0.0,
        -71.92579650878906
      ],
      "type": "VEC3"
    },
    {
      "bufferView": 2,
      "byteOffset": 816,
      "componentType": 5126,
      "count": 4,
      "max": [
        0.0,
        -1.0,
        -0.0
      ],
      "min": [
        0.0,
        -1.0,
        -0.0
      ],
      "type": "VEC3"
    },
    {
      "bufferView": 1,
      "byteOffset": 256,
      "componentType": 5126,
      "count": 4,
      "max": [
        0.3301999866962433,
        1.0017999410629272
      ],
      "min": [
        0.16859999299049377,
        0.8402000069618225
      ],
      "type": "VEC2"
    },
    {
      "bufferView": 0,
      "byteOffset": 192,
      "componentType": 5125,
      "count": 6,
      "type": "SCALAR"
    },
    {
      "bufferView": 2,
      "byteOffset": 864,
      "componentType": 5126,
      "count": 4,
      "max": [
        71.92579650878906,
        0.0,
        71.92579650878906
      ],
      "min": [
        -71.92579650878906,
        0.0,
        -71.92579650878906
      ],
      "type": "VEC3"
    },
    {
      "bufferView": 2,
      "byteOffset": 912,
      "componentType": 5126,
      "count": 4,
      "max": [
        0.0,
        -1.0,
        -0.0
      ],
      "min": [
        0.0,
        -1.0,
        -0.0
      ],
      "type": "VEC3"
    },
    {
      "bufferView": 1,
      "byteOffset": 288,
      "componentType": 5126,
      "count": 4,
      "max": [
        0.16459999978542328,
        0.3483999967575073
      ],
      "min": [
        0.003100000089034438,
        0.1868000030517578
      ],
      "type": "VEC2"
    },
    {
      "bufferView": 0,
      "byteOffset": 216,
      "componentType": 5125,
      "count": 6,
      "type": "SCALAR"
    },
    {
      "bufferView": 2,
      "byteOffset": 960,
      "componentType": 5126,
      "count": 4,
      "max": [
        71.92579650878906,
        0.0,
        71.92579650878906
      ],
      "min": [
        -71.92579650878906,
        0.0,
        -71.92579650878906
      ],
      "type": "VEC3"
    },
    {
      "bufferView": 2,
      "byteOffset": 1008,
      "componentType": 5126,
      "count": 4,
      "max": [
        0.0,
        -1.0,
        -0.0
      ],
      "min": [
        0.0,
        -1.0,
        -0.0
      ],
      "type": "VEC3"
    },
    {
      "bufferView": 1,
      "byteOffset": 320,
      "componentType": 5126,
      "count": 4,
      "max": [
        0.3301999866962433,
        1.0017999410629272
      ],
      "min": [
        0.16859999299049377,
        0.8402000069618225
      ],
      "type": "VEC2"
    },
    {
      "bufferView": 0,
      "byteOffset": 240,
      "componentType": 5125,
      "count": 6,
      "type": "SCALAR"
    },
    {
      "bufferView": 2,
      "byteOffset": 1056,
      "componentType": 5126,
      "count": 4,
      "max": [
        71.92579650878906,
        0.0,
        71.92579650878906
      ],
      "min": [
        -71.92579650878906,
        0.0,
        -71.92579650878906
      ],
      "type": "VEC3"
    },
    {
      "bufferView": 2,
      "byteOffset": 1104,
      "componentType": 5126,
      "count": 4,
      "max": [
        0.0,
        -1.0,
        -0.0
      ],
      "min": [
        0.0,
        -1.0,
        -0.0
      ],
      "type": "VEC3"
    },
    {
      "bufferView": 1,
      "byteOffset": 352,
      "componentType": 5126,
      "count": 4,
      "max": [
        0.16760000586509705,
        0.3483999967575073
      ],
      "min": [
        0.006000000052154064,
        0.1868000030517578
      ],
      "type": "VEC2"
    },
    {
      "bufferView": 0,
      "byteOffset": 264,
      "componentType": 5125,
      "count": 6,
      "type": "SCALAR"
    },
    {
      "bufferView": 2,
      "byteOffset": 1152,
      "componentType": 5126,
      "count": 4,
      "max": [
        71.92579650878906,
        0.0,
        71.92579650878906
      ],
      "min": [
        -71.92579650878906,
        0.0,
        -71.92579650878906
      ],
      "type": "VEC3"
    },
    {
      "bufferView": 2,
      "byteOffset": 1200,
      "componentType": 5126,
      "count": 4,
      "max": [
        0.0,
        -1.0,
        -0.0
      ],
      "min": [
        0.0,
        -1.0,
        -0.0
      ],
      "type": "VEC3"
    },
    {
      "bufferView": 1,
      "byteOffset": 384,
      "componentType": 5126,
      "count": 4,
      "max": [
        0.3301999866962433,
        1.0017999410629272
      ],
      "min": [
        0.16859999299049377,
        0.8402000069618225
      ],
      "type": "VEC2"
    },
    {
      "bufferView": 0,
      "byteOffset": 288,
      "componentType": 5125,
      "count": 6,
      "type": "SCALAR"
    },
    {
      "bufferView": 2,
      "byteOffset": 1248,
      "componentType": 5126,
      "count": 4,
      "max": [
        71.92579650878906,
        0.0,
        71.92579650878906
      ],
      "min": [
        -71.92579650878906,
        0.0,
        -71.92579650878906
      ],
      "type": "VEC3"
    },
    {
      "bufferView": 2,
      "byteOffset": 1296,
      "componentType": 5126,
      "count": 4,
      "max": [
        0.0,
        -1.0,
        -0.0
      ],
      "min": [
        0.0,
        -1.0,
        -0.0
      ],
      "type": "VEC3"
    },
    {
      "bufferView": 1,
      "byteOffset": 416,
      "componentType": 5126,
      "count": 4,
      "max": [
        0.8205000162124634,
        0.5141000151634216
      ],
      "min": [
        0.6589000225067139,
        0.35249999165534973
      ],
      "type": "VEC2"
    },
    {
      "bufferView": 0,
      "byteOffset": 312,
      "componentType": 5125,
      "count": 6,
      "type": "SCALAR"
    },
    {
      "bufferView": 2,
      "byteOffset": 1344,
      "componentType": 5126,
      "count": 4,
      "max": [
        71.92579650878906,
        0.0,
        71.92579650878906
      ],
      "min": [
        -71.92579650878906,
        0.0,
        -71.92579650878906
      ],
      "type": "VEC3"
    },
    {
      "bufferView": 2,
      "byteOffset": 1392,
      "componentType": 5126,
      "count": 4,
      "max": [
        0.0,
        -1.0,
        -0.0
      ],
      "min": [
        0.0,
        -1.0,
        -0.0
      ],
      "type": "VEC3"
    },
    {
      "bufferView": 1,
      "byteOffset": 448,
      "componentType": 5126,
      "count": 4,
      "max": [
        0.3301999866962433,
        1.0017999410629272
      ],
      "min": [
        0.16859999299049377,
        0.8402000069618225
      ],
      "type": "VEC2"
    },
    {
      "bufferView": 0,
      "byteOffset": 336,
      "componentType": 5125,
      "count": 6,
      "type": "SCALAR"
    },
    {
      "bufferView": 2,
      "byteOffset": 1440,
      "componentType": 5126,
      "count": 4,
      "max": [
        71.92579650878906,
        0.0,
        71.92579650878906
      ],
      "min": [
        -71.92579650878906,
        0.0,
        -71.92579650878906
      ],
      "type": "VEC3"
    },
    {
      "bufferView": 2,
      "byteOffset": 1488,
      "componentType": 5126,
      "count": 4,
      "max": [
        0.0,
        -1.0,
        -0.0
      ],
      "min": [
        0.0,
        -1.0,
        -0.0
      ],
      "type": "VEC3"
    },
    {
      "bufferView": 1,
      "byteOffset": 480,
      "componentType": 5126,
      "count": 4,
      "max": [
        0.491100013256073,
        0.5141000151634216
      ],
      "min": [
        0.3294999897480011,
        0.35249999165534973
      ],
      "type": "VEC2"
    },
    {
      "bufferView": 0,
      "byteOffset": 360,
      "componentType": 5125,
      "count": 6,
      "type": "SCALAR"
    },
    {
      "bufferView": 2,
      "byteOffset": 1536,
      "componentType": 5126,
      "count": 4,
      "max": [
        71.92579650878906,
        0.0,
        71.92579650878906
      ],
      "min": [
        -71.92579650878906,
        0.0,
        -71.92579650878906
      ],
      "type": "VEC3"
    },
    {
      "bufferView": 2,
      "byteOffset": 1584,
      "componentType": 5126,
      "count": 4,
      "max": [
        0.0,
        -1.0,
        -0.0
      ],
      "min": [
        0.0,
        -1.0,
        -0.0
      ],
      "type": "VEC3"
    },
    {
      "bufferView": 1,
      "byteOffset": 512,
      "componentType": 5126,
      "count": 4,
      "max": [
        0.3301999866962433,
        1.0017999410629272
      ],
      "min": [
        0.16859999299049377,
        0.8402000069618225
      ],
      "type": "VEC2"
    },
    {
      "bufferView": 0,
      "byteOffset": 384,
      "componentType": 5125,
      "count": 6,
      "type": "SCALAR"
    },
    {
      "bufferView": 2,
      "byteOffset": 1632,
      "componentType": 5126,
      "count": 4,
      "max": [
        71.92579650878906,
        0.0,
        71.92579650878906
      ],
      "min": [
        -71.92579650878906,
        0.0,
        -71.92579650878906
      ],
      "type": "VEC3"
    },
    {
      "bufferView": 2,
      "byteOffset": 1680,
      "componentType": 5126,
      "count": 4,
      "max": [
        0.0,
        -1.0,
        -0.0
      ],
      "min": [
        0.0,
        -1.0,
        -0.0
      ],
      "type": "VEC3"
    },
    {
      "bufferView": 1,
      "byteOffset": 544,
      "componentType": 5126,
      "count": 4,
      "max": [
        0.16380000114440918,
        0.5141000151634216
      ],
      "min": [
        0.002199999988079071,
        0.35249999165534973
      ],
      "type": "VEC2"
    },
    {
      "bufferView": 0,
      "byteOffset": 408,
      "componentType": 5125,
      "count": 6,
      "type": "SCALAR"
    },
    {
      "bufferView": 2,
      "byteOffset": 1728,
      "componentType": 5126,
      "count": 4,
      "max": [
        71.92579650878906,
        0.0,
        71.92579650878906
      ],
      "min": [
        -71.92579650878906,
        0.0,
        -71.92579650878906
      ],
      "type": "VEC3"
    },
    {
      "bufferView": 2,
      "byteOffset": 1776,
      "componentType": 5126,
      "count": 4,
      "max": [
        0.0,
        -1.0,
        -0.0
      ],
      "min": [
        0.0,
        -1.0,
        -0.0
      ],
      "type": "VEC3"
    },
    {
      "bufferView": 1,
      "byteOffset": 576,
      "componentType": 5126,
      "count": 4,
      "max": [
        0.3301999866962433,
        1.0017999410629272
      ],
      "min": [
        0.16859999299049377,
        0.8402000069618225
      ],
      "type": "VEC2"
    },
    {
      "bufferView": 0,
      "byteOffset": 432,
      "componentType": 5125,
      "count": 6,
      "type": "SCALAR"
    },
    {
      "bufferView": 2,
      "byteOffset": 1824,
      "componentType": 5126,
      "count": 4,
      "max": [
        71.92579650878906,
        0.0,
        71.92579650878906
      ],
      "min": [
        -71.92579650878906,
        0.0,
        -71.92579650878906
      ],
      "type": "VEC3"
    },
    {
      "bufferView": 2,
      "byteOffset": 1872,
      "componentType": 5126,
      "count": 4,
      "max": [
        0.0,
        -1.0,
        -0.0
      ],
      "min": [
        0.0,
        -1.0,
        -0.0
      ],
      "type": "VEC3"
    },
    {
      "bufferView": 1,
      "byteOffset": 608,
      "componentType": 5126,
      "count": 4,
      "max": [
        0.8216999769210815,
        0.6757000088691711
      ],
      "min": [
        0.660099983215332,
        0.5141000151634216
      ],
      "type": "VEC2"
    },
    {
      "bufferView": 0,
      "byteOffset": 456,
      "componentType": 5125,
      "count": 6,
      "type": "SCALAR"
    },
    {
      "bufferView": 2,
      "byteOffset": 1920,
      "componentType": 5126,
      "count": 4,
      "max": [
        71.92579650878906,
        0.0,
        71.92579650878906
      ],
      "min": [
        -71.92579650878906,
        0.0,
        -71.92579650878906
      ],
      "type": "VEC3"
    },
    {
      "bufferView": 2,
      "byteOffset": 1968,
      "componentType": 5126,
      "count": 4,
      "max": [
        0.0,
        -1.0,
        -0.0
      ],
      "min": [
        0.0,
        -1.0,
        -0.0
      ],
      "type": "VEC3"
    },
    {
      "bufferView": 1,
      "byteOffset": 640,
      "componentType": 5126,
      "count": 4,
      "max": [
        0.3301999866962433,
        1.0017999410629272
      ],
      "min": [
        0.16859999299049377,
        0.8402000069618225
      ],
      "type": "VEC2"
    },
    {
      "bufferView": 0,
      "byteOffset": 480,
      "componentType": 5125,
      "count": 6,
      "type": "SCALAR"
    },
    {
      "bufferView": 2,
      "byteOffset": 2016,
      "componentType": 5126,
      "count": 4,
      "max": [
        71.92579650878906,
        0.0,
        71.92579650878906
      ],
      "min": [
        -71.92579650878906,
        0.0,
        -71.92579650878906
      ],
      "type": "VEC3"
    },
    {
      "bufferView": 2,
      "byteOffset": 2064,
      "componentType": 5126,
      "count": 4,
      "max": [
        0.0,
        -1.0,
        -0.0
      ],
      "min": [
        0.0,
        -1.0,
        -0.0
      ],
      "type": "VEC3"
    },
    {
      "bufferView": 1,
      "byteOffset": 672,
      "componentType": 5126,
      "count": 4,
      "max": [
        0.492900013923645,
        0.6757000088691711
      ],
      "min": [
        0.3314000070095062,
        0.5141000151634216
      ],
      "type": "VEC2"
    },
    {
      "bufferView": 0,
      "byteOffset": 504,
      "componentType": 5125,
      "count": 6,
      "type": "SCALAR"
    },
    {
      "bufferView": 2,
      "byteOffset": 2112,
      "componentType": 5126,
      "count": 4,
      "max": [
        71.92579650878906,
        0.0,
        71.92579650878906
      ],
      "min": [
        -71.92579650878906,
        0.0,
        -71.92579650878906
      ],
      "type": "VEC3"
    },
    {
      "bufferView": 2,
      "byteOffset": 2160,
      "componentType": 5126,
      "count": 4,
      "max": [
        0.0,
        -1.0,
        -0.0
      ],
      "min": [
        0.0,
        -1.0,
        -0.0
      ],
      "type": "VEC3"
    },
    {
      "bufferView": 1,
      "byteOffset": 704,
      "componentType": 5126,
      "count": 4,
      "max": [
        0.3301999866962433,
        1.0017999410629272
      ],
      "min": [
        0.16859999299049377,
        0.8402000069618225
      ],
      "type": "VEC2"
    },
    {
      "bufferView": 0,
      "byteOffset": 528,
      "componentType": 5125,
      "count": 6,
      "type": "SCALAR"
    },
    {
      "bufferView": 2,
      "byteOffset": 2208,
      "componentType": 5126,
      "count": 4,
      "max": [
        71.92579650878906,
        0.0,
        71.92579650878906
      ],
      "min": [
        -71.92579650878906,
        0.0,
        -71.92579650878906
      ],
      "type": "VEC3"
    },
    {
      "bufferView": 2,
      "byteOffset": 2256,
      "componentType": 5126,
      "count": 4,
      "max": [
        0.0,
        -1.0,
        -0.0
      ],
      "min": [
        0.0,
        -1.0,
        -0.0
      ],
      "type": "VEC3"
    },
    {
      "bufferView": 1,
      "byteOffset": 736,
      "componentType": 5126,
      "count": 4,
      "max": [
        0.1639000028371811,
        0.6757000088691711
      ],
      "min": [
        0.002300000051036477,
        0.5141000151634216
      ],
      "type": "VEC2"
    },
    {
      "bufferView": 0,
      "byteOffset": 552,
      "componentType": 5125,
      "count": 6,
      "type": "SCALAR"
    },
    {
      "bufferView": 2,
      "byteOffset": 2304,
      "componentType": 5126,
      "count": 4,
      "max": [
        71.92579650878906,
        0.0,
        71.92579650878906
      ],
      "min": [
        -71.92579650878906,
        0.0,
        -71.92579650878906
      ],
      "type": "VEC3"
    },
    {
      "bufferView": 2,
      "byteOffset": 2352,
      "componentType": 5126,
      "count": 4,
      "max": [
        0.0,
        -1.0,
        -0.0
      ],
      "min": [
        0.0,
        -1.0,
        -0.0
      ],
      "type": "VEC3"
    },
    {
      "bufferView": 1,
      "byteOffset": 768,
      "componentType": 5126,
      "count": 4,
      "max": [
        0.3301999866962433,
        1.0017999410629272
      ],
      "min": [
        0.16859999299049377,
        0.8402000069618225
      ],
      "type": "VEC2"
    },
    {
      "bufferView": 0,
      "byteOffset": 576,
      "componentType": 5125,
      "count": 6,
      "type": "SCALAR"
    },
    {
      "bufferView": 2,
      "byteOffset": 2400,
      "componentType": 5126,
      "count": 4,
      "max": [
        71.92579650878906,
        0.0,
        71.92579650878906
      ],
      "min": [
        -71.92579650878906,
        0.0,
        -71.92579650878906
      ],
      "type": "VEC3"
    },
    {
      "bufferView": 2,
      "byteOffset": 2448,
      "componentType": 5126,
      "count": 4,
      "max": [
        0.0,
        -1.0,
        -0.0
      ],
      "min": [
        0.0,
        -1.0,
        -0.0
      ],
      "type": "VEC3"
    },
    {
      "bufferView": 1,
      "byteOffset": 800,
      "componentType": 5126,
      "count": 4,
      "max": [
        0.8202000260353088,
        0.8388000130653381
      ],
      "min": [
        0.6585999727249146,
        0.6772000193595886
      ],
      "type": "VEC2"
    },
    {
      "bufferView": 0,
      "byteOffset": 600,
      "componentType": 5125,
      "count": 6,
      "type": "SCALAR"
    },
    {
      "bufferView": 2,
      "byteOffset": 2496,
      "componentType": 5126,
      "count": 4,
      "max": [
        71.92579650878906,
        0.0,
        71.92579650878906
      ],
      "min": [
        -71.92579650878906,
        0.0,
        -71.92579650878906
      ],
      "type": "VEC3"
    },
    {
      "bufferView": 2,
      "byteOffset": 2544,
      "componentType": 5126,
      "count": 4,
      "max": [
        0.0,
        -1.0,
        -0.0
      ],
      "min": [
        0.0,
        -1.0,
        -0.0
      ],
      "type": "VEC3"
    },
    {
      "bufferView": 1,
      "byteOffset": 832,
      "componentType": 5126,
      "count": 4,
      "max": [
        0.3301999866962433,
        1.0017999410629272
      ],
      "min": [
        0.16859999299049377,
        0.8402000069618225
      ],
      "type": "VEC2"
    },
    {
      "bufferView": 0,
      "byteOffset": 624,
      "componentType": 5125,
      "count": 6,
      "type": "SCALAR"
    },
    {
      "bufferView": 2,
      "byteOffset": 2592,
      "componentType": 5126,
      "count": 4,
      "max": [
        71.92579650878906,
        0.0,
        71.92579650878906
      ],
      "min": [
        -71.92579650878906,
        0.0,
        -71.92579650878906
      ],
      "type": "VEC3"
    },
    {
      "bufferView": 2,
      "byteOffset": 2640,
      "componentType": 5126,
      "count": 4,
      "max": [
        0.0,
        -1.0,
        -0.0
      ],
      "min": [
        0.0,
        -1.0,
        -0.0
      ],
      "type": "VEC3"
    },
    {
      "bufferView": 1,
      "byteOffset": 864,
      "componentType": 5126,
      "count": 4,
      "max": [
        0.49570000171661377,
        0.8388000130653381
      ],
      "min": [
        0.33410000801086426,
        0.6772000193595886
      ],
      "type": "VEC2"
    },
    {
      "bufferView": 0,
      "byteOffset": 648,
      "componentType": 5125,
      "count": 6,
      "type": "SCALAR"
    },
    {
      "bufferView": 2,
      "byteOffset": 2688,
      "componentType": 5126,
      "count": 4,
      "max": [
        71.92579650878906,
        0.0,
        71.92579650878906
      ],
      "min": [
        -71.92579650878906,
        0.0,
        -71.92579650878906
      ],
      "type": "VEC3"
    },
    {
      "bufferView": 2,
      "byteOffset": 2736,
      "componentType": 5126,
      "count": 4,
      "max": [
        0.0,
        -1.0,
        -0.0
      ],
      "min": [
        0.0,
        -1.0,
        -0.0
      ],
      "type": "VEC3"
    },
    {
      "bufferView": 1,
      "byteOffset": 896,
      "componentType": 5126,
      "count": 4,
      "max": [
        0.3301999866962433,
        1.0017999410629272
      ],
      "min": [
        0.16859999299049377,
        0.8402000069618225
      ],
      "type": "VEC2"
    },
    {
      "bufferView": 0,
      "byteOffset": 672,
      "componentType": 5125,
      "count": 6,
      "type": "SCALAR"
    },
    {
      "bufferView": 2,
      "byteOffset": 2784,
      "componentType": 5126,
      "count": 4,
      "max": [
        71.92579650878906,
        0.0,
        71.92579650878906
      ],
      "min": [
        -71.92579650878906,
        0.0,
        -71.92579650878906
      ],
      "type": "VEC3"
    },
    {
      "bufferView": 2,
      "byteOffset": 2832,
      "componentType": 5126,
      "count": 4,
      "max": [
        0.0,
        -1.0,
        -0.0
      ],
      "min": [
        0.0,
        -1.0,
        -0.0
      ],
      "type": "VEC3"
    },
    {
      "bufferView": 1,
      "byteOffset": 928,
      "componentType": 5126,
      "count": 4,
      "max": [
        0.16429999470710754,
        0.8388000130653381
      ],
      "min": [
        0.0027000000700354576,
        0.6772000193595886
      ],
      "type": "VEC2"
    },
    {
      "bufferView": 0,
      "byteOffset": 696,
      "componentType": 5125,
      "count": 6,
      "type": "SCALAR"
    },
    {
      "bufferView": 2,
      "byteOffset": 2880,
      "componentType": 5126,
      "count": 4,
      "max": [
        71.92579650878906,
        0.0,
        71.92579650878906
      ],
      "min": [
        -71.92579650878906,
        0.0,
        -71.92579650878906
      ],
      "type": "VEC3"
    },
    {
      "bufferView": 2,
      "byteOffset": 2928,
      "componentType": 5126,
      "count": 4,
      "max": [
        0.0,
        -1.0,
        -0.0
      ],
      "min": [
        0.0,
        -1.0,
        -0.0
      ],
      "type": "VEC3"
    },
    {
      "bufferView": 1,
      "byteOffset": 960,
      "componentType": 5126,
      "count": 4,
      "max": [
        0.3301999866962433,
        1.0017999410629272
      ],
      "min": [
        0.16859999299049377,
        0.8402000069618225
      ],
      "type": "VEC2"
    },
    {
      "bufferView": 0,
      "byteOffset": 720,
      "componentType": 5125,
      "count": 6,
      "type": "SCALAR"
    },
    {
      "bufferView": 2,
      "byteOffset": 2976,
      "componentType": 5126,
      "count": 4,
      "max": [
        71.92579650878906,
        0.0,
        71.92579650878906
      ],
      "min": [
        -71.92579650878906,
        0.0,
        -71.92579650878906
      ],
      "type": "VEC3"
    },
    {
      "bufferView": 2,
      "byteOffset": 3024,
      "componentType": 5126,
      "count": 4,
      "max": [
        0.0,
        -1.0,
        -0.0
      ],
      "min": [
        0.0,
        -1.0,
        -0.0
      ],
      "type": "VEC3"
    },
    {
      "bufferView": 1,
      "byteOffset": 992,
      "componentType": 5126,
      "count": 4,
      "max": [
        0.8187999725341797,
        1.0017999410629272
      ],
      "min": [
        0.6571999788284302,
        0.8402000069618225
      ],
      "type": "VEC2"
    },
    {
      "bufferView": 0,
      "byteOffset": 744,
      "componentType": 5125,
      "count": 6,
      "type": "SCALAR"
    },
    {
      "bufferView": 2,
      "byteOffset": 3072,
      "componentType": 5126,
      "count": 4,
      "max": [
        71.92579650878906,
        0.0,
        71.92579650878906
      ],
      "min": [
        -71.92579650878906,
        0.0,
        -71.92579650878906
      ],
      "type": "VEC3"
    },
    {
      "bufferView": 2,
      "byteOffset": 3120,
      "componentType": 5126,
      "count": 4,
      "max": [
        0.0,
        -1.0,
        -0.0
      ],
      "min": [
        0.0,
        -1.0,
        -0.0
      ],
      "type": "VEC3"
    },
    {
      "bufferView": 1,
      "byteOffset": 1024,
      "componentType": 5126,
      "count": 4,
      "max": [
        0.3301999866962433,
        1.0017999410629272
      ],
      "min": [
        0.16859999299049377,
        0.8402000069618225
      ],
      "type": "VEC2"
    },
    {
      "bufferView": 0,
      "byteOffset": 768,
      "componentType": 5125,
      "count": 6,
      "type": "SCALAR"
    },
    {
      "bufferView": 2,
      "byteOffset": 3168,
      "componentType": 5126,
      "count": 4,
      "max": [
        71.92579650878906,
        0.0,
        71.92579650878906
      ],
      "min": [
        -71.92579650878906,
        0.0,
        -71.92579650878906
      ],
      "type": "VEC3"
    },
    {
      "bufferView": 2,
      "byteOffset": 3216,
      "componentType": 5126,
      "count": 4,
      "max": [
        0.0,
        -1.0,
        -0.0
      ],
      "min": [
        0.0,
        -1.0,
        -0.0
      ],
      "type": "VEC3"
    },
    {
      "bufferView": 1,
      "byteOffset": 1056,
      "componentType": 5126,
      "count": 4,
      "max": [
        0.49300000071525574,
        1.0017999410629272
      ],
      "min": [
        0.3314000070095062,
        0.8402000069618225
      ],
      "type": "VEC2"
    },
    {
      "bufferView": 0,
      "byteOffset": 792,
      "componentType": 5125,
      "count": 6,
      "type": "SCALAR"
    },
    {
      "bufferView": 2,
      "byteOffset": 3264,
      "componentType": 5126,
      "count": 4,
      "max": [
        71.92579650878906,
        0.0,
        71.92579650878906
      ],
      "min": [
        -71.92579650878906,
        0.0,
        -71.92579650878906
      ],
      "type": "VEC3"
    },
    {
      "bufferView": 2,
      "byteOffset": 3312,
      "componentType": 5126,
      "count": 4,
      "max": [
        0.0,
        -1.0,
        -0.0
      ],
      "min": [
        0.0,
        -1.0,
        -0.0
      ],
      "type": "VEC3"
    },
    {
      "bufferView": 1,
      "byteOffset": 1088,
      "componentType": 5126,
      "count": 4,
      "max": [
        0.3301999866962433,
        1.0017999410629272
      ],
      "min": [
        0.16859999299049377,
        0.8402000069618225
      ],
      "type": "VEC2"
    },
    {
      "bufferView": 0,
      "byteOffset": 816,
      "componentType": 5125,
      "count": 6,
      "type": "SCALAR"
    },
    {
      "bufferView": 2,
      "byteOffset": 3360,
      "componentType": 5126,
      "count": 4,
      "max": [
        71.92579650878906,
        0.0,
        71.92579650878906
      ],
      "min": [
        -71.92579650878906,
        0.0,
        -71.92579650878906
      ],
      "type": "VEC3"
    },
    {
      "bufferView": 2,
      "byteOffset": 3408,
      "componentType": 5126,
      "count": 4,
      "max": [
        0.0,
        -1.0,
        -0.0
      ],
      "min": [
        0.0,
        -1.0,
        -0.0
      ],
      "type": "VEC3"
    },
    {
      "bufferView": 1,
      "byteOffset": 1120,
      "componentType": 5126,
      "count": 4,
      "max": [
        0.16449999809265137,
        1.0017999410629272
      ],
      "min": [
        0.002899999963119626,
        0.8402000069618225
      ],
      "type": "VEC2"
    },
    {
      "bufferView": 0,
      "byteOffset": 840,
      "componentType": 5125,
      "count": 6,
      "type": "SCALAR"
    },
    {
      "bufferView": 3,
      "componentType": 5126,
      "count": 2,
      "max": [
        0.10000000149011612
      ],
      "min": [
        0.0
      ],
      "type": "SCALAR"
    },
    {
      "bufferView": 4,
      "componentType": 5126,
      "count": 2,
      "max": [
        1.0,
        1.0,
        1.0
      ],
      "min": [
        1.0,
        1.0,
        1.0
      ],
      "type": "VEC3"
    },
    {
      "bufferView": 3,
      "byteOffset": 8,
      "componentType": 5126,
      "count": 3,
      "max": [
        0.20000000298023224
      ],
      "min": [
        0.0
      ],
      "type": "SCALAR"
    },
    {
      "bufferView": 4,
      "byteOffset": 24,
      "componentType": 5126,
      "count": 3,
      "max": [
        1.0,
        1.0,
        1.0
      ],
      "min": [
        1.000000013351432e-10,
        1.000000013351432e-10,
        1.000000013351432e-10
      ],
      "type": "VEC3"
    },
    {
      "bufferView": 3,
      "byteOffset": 20,
      "componentType": 5126,
      "count": 3,
      "max": [
        0.30000001192092896
      ],
      "min": [
        0.0
      ],
      "type": "SCALAR"
    },
    {
      "bufferView": 4,
      "byteOffset": 60,
      "componentType": 5126,
      "count": 3,
      "max": [
        1.0,
        1.0,
        1.0
      ],
      "min": [
        1.000000013351432e-10,
        1.000000013351432e-10,
        1.000000013351432e-10
      ],
      "type": "VEC3"
    },
    {
      "bufferView": 3,
      "byteOffset": 32,
      "componentType": 5126,
      "count": 3,
      "max": [
        0.4000000059604645
      ],
      "min": [
        0.0
      ],
      "type": "SCALAR"
    },
    {
      "bufferView": 4,
      "byteOffset": 96,
      "componentType": 5126,
      "count": 3,
      "max": [
        1.0,
        1.0,
        1.0
      ],
      "min": [
        1.000000013351432e-10,
        1.000000013351432e-10,
        1.000000013351432e-10
      ],
      "type": "VEC3"
    },
    {
      "bufferView": 3,
      "byteOffset": 44,
      "componentType": 5126,
      "count": 3,
      "max": [
        0.5
      ],
      "min": [
        0.0
      ],
      "type": "SCALAR"
    },
    {
      "bufferView": 4,
      "byteOffset": 132,
      "componentType": 5126,
      "count": 3,
      "max": [
        1.0,
        1.0,
        1.0
      ],
      "min": [
        1.000000013351432e-10,
        1.000000013351432e-10,
        1.000000013351432e-10
      ],
      "type": "VEC3"
    },
    {
      "bufferView": 3,
      "byteOffset": 56,
      "componentType": 5126,
      "count": 3,
      "max": [
        0.6000000238418579
      ],
      "min": [
        0.0
      ],
      "type": "SCALAR"
    },
    {
      "bufferView": 4,
      "byteOffset": 168,
      "componentType": 5126,
      "count": 3,
      "max": [
        1.0,
        1.0,
        1.0
      ],
      "min": [
        1.000000013351432e-10,
        1.000000013351432e-10,
        1.000000013351432e-10
      ],
      "type": "VEC3"
    },
    {
      "bufferView": 3,
      "byteOffset": 68,
      "componentType": 5126,
      "count": 3,
      "max": [
        0.7000000476837158
      ],
      "min": [
        0.0
      ],
      "type": "SCALAR"
    },
    {
      "bufferView": 4,
      "byteOffset": 204,
      "componentType": 5126,
      "count": 3,
      "max": [
        1.0,
        1.0,
        1.0
      ],
      "min": [
        1.000000013351432e-10,
        1.000000013351432e-10,
        1.000000013351432e-10
      ],
      "type": "VEC3"
    },
    {
      "bufferView": 3,
      "byteOffset": 80,
      "componentType": 5126,
      "count": 3,
      "max": [
        0.8000000715255737
      ],
      "min": [
        0.0
      ],
      "type": "SCALAR"
    },
    {
      "bufferView": 4,
      "byteOffset": 240,
      "componentType": 5126,
      "count": 3,
      "max": [
        1.0,
        1.0,
        1.0
      ],
      "min": [
        1.000000013351432e-10,
        1.000000013351432e-10,
        1.000000013351432e-10
      ],
      "type": "VEC3"
    },
    {
      "bufferView": 3,
      "byteOffset": 92,
      "componentType": 5126,
      "count": 3,
      "max": [
        0.9000000953674316
      ],
      "min": [
        0.0
      ],
      "type": "SCALAR"
    },
    {
      "bufferView": 4,
      "byteOffset": 276,
      "componentType": 5126,
      "count": 3,
      "max": [
        1.0,
        1.0,
        1.0
      ],
      "min": [
        1.000000013351432e-10,
        1.000000013351432e-10,
        1.000000013351432e-10
      ],
      "type": "VEC3"
    },
    {
      "bufferView": 3,
      "byteOffset": 104,
      "componentType": 5126,
      "count": 3,
      "max": [
        1.0000001192092896
      ],
      "min": [
        0.0
      ],
      "type": "SCALAR"
    },
    {
      "bufferView": 4,
      "byteOffset": 312,
      "componentType": 5126,
      "count": 3,
      "max": [
        1.0,
        1.0,
        1.0
      ],
      "min": [
        1.000000013351432e-10,
        1.000000013351432e-10,
        1.000000013351432e-10
      ],
      "type": "VEC3"
    },
    {
      "bufferView": 3,
      "byteOffset": 116,
      "componentType": 5126,
      "count": 3,
      "max": [
        1.1000001430511475
      ],
      "min": [
        0.0
      ],
      "type": "SCALAR"
    },
    {
      "bufferView": 4,
      "byteOffset": 348,
      "componentType": 5126,
      "count": 3,
      "max": [
        1.0,
        1.0,
        1.0
      ],
      "min": [
        1.000000013351432e-10,
        1.000000013351432e-10,
        1.000000013351432e-10
      ],
      "type": "VEC3"
    },
    {
      "bufferView": 3,
      "byteOffset": 128,
      "componentType": 5126,
      "count": 3,
      "max": [
        1.2000001668930054
      ],
      "min": [
        0.0
      ],
      "type": "SCALAR"
    },
    {
      "bufferView": 4,
      "byteOffset": 384,
      "componentType": 5126,
      "count": 3,
      "max": [
        1.0,
        1.0,
        1.0
      ],
      "min": [
        1.000000013351432e-10,
        1.000000013351432e-10,
        1.000000013351432e-10
      ],
      "type": "VEC3"
    },
    {
      "bufferView": 3,
      "byteOffset": 140,
      "componentType": 5126,
      "count": 3,
      "max": [
        1.3000001907348633
      ],
      "min": [
        0.0
      ],
      "type": "SCALAR"
    },
    {
      "bufferView": 4,
      "byteOffset": 420,
      "componentType": 5126,
      "count": 3,
      "max": [
        1.0,
        1.0,
        1.0
      ],
      "min": [
        1.000000013351432e-10,
        1.000000013351432e-10,
        1.000000013351432e-10
      ],
      "type": "VEC3"
    },
    {
      "bufferView": 3,
      "byteOffset": 152,
      "componentType": 5126,
      "count": 3,
      "max": [
        1.4000002145767212
      ],
      "min": [
        0.0
      ],
      "type": "SCALAR"
    },
    {
      "bufferView": 4,
      "byteOffset": 456,
      "componentType": 5126,
      "count": 3,
      "max": [
        1.0,
        1.0,
        1.0
      ],
      "min": [
        1.000000013351432e-10,
        1.000000013351432e-10,
        1.000000013351432e-10
      ],
      "type": "VEC3"
    },
    {
      "bufferView": 3,
      "byteOffset": 164,
      "componentType": 5126,
      "count": 3,
      "max": [
        1.500000238418579
      ],
      "min": [
        0.0
      ],
      "type": "SCALAR"
    },
    {
      "bufferView": 4,
      "byteOffset": 492,
      "componentType": 5126,
      "count": 3,
      "max": [
        1.0,
        1.0,
        1.0
      ],
      "min": [
        1.000000013351432e-10,
        1.000000013351432e-10,
        1.000000013351432e-10
      ],
      "type": "VEC3"
    },
    {
      "bufferView": 3,
      "byteOffset": 176,
      "componentType": 5126,
      "count": 3,
      "max": [
        1.600000262260437
      ],
      "min": [
        0.0
      ],
      "type": "SCALAR"
    },
    {
      "bufferView": 4,
      "byteOffset": 528,
      "componentType": 5126,
      "count": 3,
      "max": [
        1.0,
        1.0,
        1.0
      ],
      "min": [
        1.000000013351432e-10,
        1.000000013351432e-10,
        1.000000013351432e-10
      ],
      "type": "VEC3"
    },
    {
      "bufferView": 3,
      "byteOffset": 188,
      "componentType": 5126,
      "count": 3,
      "max": [
        1.700000286102295
      ],
      "min": [
        0.0
      ],
      "type": "SCALAR"
    },
    {
      "bufferView": 4,
      "byteOffset": 564,
      "componentType": 5126,
      "count": 3,
      "max": [
        1.0,
        1.0,
        1.0
      ],
      "min": [
        1.000000013351432e-10,
        1.000000013351432e-10,
        1.000000013351432e-10
      ],
      "type": "VEC3"
    },
    {
      "bufferView": 3,
      "byteOffset": 200,
      "componentType": 5126,
      "count": 3,
      "max": [
        1.8000003099441528
      ],
      "min": [
        0.0
      ],
      "type": "SCALAR"
    },
    {
      "bufferView": 4,
      "byteOffset": 600,
      "componentType": 5126,
      "count": 3,
      "max": [
        1.0,
        1.0,
        1.0
      ],
      "min": [
        1.000000013351432e-10,
        1.000000013351432e-10,
        1.000000013351432e-10
      ],
      "type": "VEC3"
    },
    {
      "bufferView": 3,
      "byteOffset": 212,
      "componentType": 5126,
      "count": 3,
      "max": [
        1.9000003337860107
      ],
      "min": [
        0.0
      ],
      "type": "SCALAR"
    },
    {
      "bufferView": 4,
      "byteOffset": 636,
      "componentType": 5126,
      "count": 3,
      "max": [
        1.0,
        1.0,
        1.0
      ],
      "min": [
        1.000000013351432e-10,
        1.000000013351432e-10,
        1.000000013351432e-10
      ],
      "type": "VEC3"
    },
    {
      "bufferView": 3,
      "byteOffset": 224,
      "componentType": 5126,
      "count": 3,
      "max": [
        2.000000238418579
      ],
      "min": [
        0.0
      ],
      "type": "SCALAR"
    },
    {
      "bufferView": 4,
      "byteOffset": 672,
      "componentType": 5126,
      "count": 3,
      "max": [
        1.0,
        1.0,
        1.0
      ],
      "min": [
        1.000000013351432e-10,
        1.000000013351432e-10,
        1.000000013351432e-10
      ],
      "type": "VEC3"
    },
    {
      "bufferView": 3,
      "byteOffset": 236,
      "componentType": 5126,
      "count": 3,
      "max": [
        2.1000001430511475
      ],
      "min": [
        0.0
      ],
      "type": "SCALAR"
    },
    {
      "bufferView": 4,
      "byteOffset": 708,
      "componentType": 5126,
      "count": 3,
      "max": [
        1.0,
        1.0,
        1.0
      ],
      "min": [
        1.000000013351432e-10,
        1.000000013351432e-10,
        1.000000013351432e-10
      ],
      "type": "VEC3"
    },
    {
      "bufferView": 3,
      "byteOffset": 248,
      "componentType": 5126,
      "count": 3,
      "max": [
        2.200000047683716
      ],
      "min": [
        0.0
      ],
      "type": "SCALAR"
    },
    {
      "bufferView": 4,
      "byteOffset": 744,
      "componentType": 5126,
      "count": 3,
      "max": [
        1.0,
        1.0,
        1.0
      ],
      "min": [
        1.000000013351432e-10,
        1.000000013351432e-10,
        1.000000013351432e-10
      ],
      "type": "VEC3"
    },
    {
      "bufferView": 3,
      "byteOffset": 260,
      "componentType": 5126,
      "count": 3,
      "max": [
        2.299999952316284
      ],
      "min": [
        0.0
      ],
      "type": "SCALAR"
    },
    {
      "bufferView": 4,
      "byteOffset": 780,
      "componentType": 5126,
      "count": 3,
      "max": [
        1.0,
        1.0,
        1.0
      ],
      "min": [
        1.000000013351432e-10,
        1.000000013351432e-10,
        1.000000013351432e-10
      ],
      "type": "VEC3"
    },
    {
      "bufferView": 3,
      "byteOffset": 272,
      "componentType": 5126,
      "count": 3,
      "max": [
        2.3999998569488525
      ],
      "min": [
        0.0
      ],
      "type": "SCALAR"
    },
    {
      "bufferView": 4,
      "byteOffset": 816,
      "componentType": 5126,
      "count": 3,
      "max": [
        1.0,
        1.0,
        1.0
      ],
      "min": [
        1.000000013351432e-10,
        1.000000013351432e-10,
        1.000000013351432e-10
      ],
      "type": "VEC3"
    },
    {
      "bufferView": 3,
      "byteOffset": 284,
      "componentType": 5126,
      "count": 3,
      "max": [
        2.499999761581421
      ],
      "min": [
        0.0
      ],
      "type": "SCALAR"
    },
    {
      "bufferView": 4,
      "byteOffset": 852,
      "componentType": 5126,
      "count": 3,
      "max": [
        1.0,
        1.0,
        1.0
      ],
      "min": [
        1.000000013351432e-10,
        1.000000013351432e-10,
        1.000000013351432e-10
      ],
      "type": "VEC3"
    },
    {
      "bufferView": 3,
      "byteOffset": 296,
      "componentType": 5126,
      "count": 3,
      "max": [
        2.5999996662139893
      ],
      "min": [
        0.0
      ],
      "type": "SCALAR"
    },
    {
      "bufferView": 4,
      "byteOffset": 888,
      "componentType": 5126,
      "count": 3,
      "max": [
        1.0,
        1.0,
        1.0
      ],
      "min": [
        1.000000013351432e-10,
        1.000000013351432e-10,
        1.000000013351432e-10
      ],
      "type": "VEC3"
    },
    {
      "bufferView": 3,
      "byteOffset": 308,
      "componentType": 5126,
      "count": 3,
      "max": [
        2.6999995708465576
      ],
      "min": [
        0.0
      ],
      "type": "SCALAR"
    },
    {
      "bufferView": 4,
      "byteOffset": 924,
      "componentType": 5126,
      "count": 3,
      "max": [
        1.0,
        1.0,
        1.0
      ],
      "min": [
        1.000000013351432e-10,
        1.000000013351432e-10,
        1.000000013351432e-10
      ],
      "type": "VEC3"
    },
    {
      "bufferView": 3,
      "byteOffset": 320,
      "componentType": 5126,
      "count": 3,
      "max": [
        2.799999475479126
      ],
      "min": [
        0.0
      ],
      "type": "SCALAR"
    },
    {
      "bufferView": 4,
      "byteOffset": 960,
      "componentType": 5126,
      "count": 3,
      "max": [
        1.0,
        1.0,
        1.0
      ],
      "min": [
        1.000000013351432e-10,
        1.000000013351432e-10,
        1.000000013351432e-10
      ],
      "type": "VEC3"
    },
    {
      "bufferView": 3,
      "byteOffset": 332,
      "componentType": 5126,
      "count": 3,
      "max": [
        2.8999993801116943
      ],
      "min": [
        0.0
      ],
      "type": "SCALAR"
    },
    {
      "bufferView": 4,
      "byteOffset": 996,
      "componentType": 5126,
      "count": 3,
      "max": [
        1.0,
        1.0,
        1.0
      ],
      "min": [
        1.000000013351432e-10,
        1.000000013351432e-10,
        1.000000013351432e-10
      ],
      "type": "VEC3"
    },
    {
      "bufferView": 3,
      "byteOffset": 344,
      "componentType": 5126,
      "count": 3,
      "max": [
        2.9999992847442627
      ],
      "min": [
        0.0
      ],
      "type": "SCALAR"
    },
    {
      "bufferView": 4,
      "byteOffset": 1032,
      "componentType": 5126,
      "count": 3,
      "max": [
        1.0,
        1.0,
        1.0
      ],
      "min": [
        1.000000013351432e-10,
        1.000000013351432e-10,
        1.000000013351432e-10
      ],
      "type": "VEC3"
    },
    {
      "bufferView": 3,
      "byteOffset": 356,
      "componentType": 5126,
      "count": 3,
      "max": [
        3.099999189376831
      ],
      "min": [
        0.0
      ],
      "type": "SCALAR"
    },
    {
      "bufferView": 4,
      "byteOffset": 1068,
      "componentType": 5126,
      "count": 3,
      "max": [
        1.0,
        1.0,
        1.0
      ],
      "min": [
        1.000000013351432e-10,
        1.000000013351432e-10,
        1.000000013351432e-10
      ],
      "type": "VEC3"
    },
    {
      "bufferView": 3,
      "byteOffset": 368,
      "componentType": 5126,
      "count": 3,
      "max": [
        3.1999990940093994
      ],
      "min": [
        0.0
      ],
      "type": "SCALAR"
    },
    {
      "bufferView": 4,
      "byteOffset": 1104,
      "componentType": 5126,
      "count": 3,
      "max": [
        1.0,
        1.0,
        1.0
      ],
      "min": [
        1.000000013351432e-10,
        1.000000013351432e-10,
        1.000000013351432e-10
      ],
      "type": "VEC3"
    },
    {
      "bufferView": 3,
      "byteOffset": 380,
      "componentType": 5126,
      "count": 3,
      "max": [
        3.2999989986419678
      ],
      "min": [
        0.0
      ],
      "type": "SCALAR"
    },
    {
      "bufferView": 4,
      "byteOffset": 1140,
      "componentType": 5126,
      "count": 3,
      "max": [
        1.0,
        1.0,
        1.0
      ],
      "min": [
        1.000000013351432e-10,
        1.000000013351432e-10,
        1.000000013351432e-10
      ],
      "type": "VEC3"
    },
    {
      "bufferView": 3,
      "byteOffset": 392,
      "componentType": 5126,
      "count": 3,
      "max": [
        3.399998903274536
      ],
      "min": [
        0.0
      ],
      "type": "SCALAR"
    },
    {
      "bufferView": 4,
      "byteOffset": 1176,
      "componentType": 5126,
      "count": 3,
      "max": [
        1.0,
        1.0,
        1.0
      ],
      "min": [
        1.000000013351432e-10,
        1.000000013351432e-10,
        1.000000013351432e-10
      ],
      "type": "VEC3"
    },
    {
      "bufferView": 3,
      "byteOffset": 404,
      "componentType": 5126,
      "count": 3,
      "max": [
        3.4999988079071045
      ],
      "min": [
        0.0
      ],
      "type": "SCALAR"
    },
    {
      "bufferView": 4,
      "byteOffset": 1212,
      "componentType": 5126,
      "count": 3,
      "max": [
        1.0,
        1.0,
        1.0
      ],
      "min": [
        1.000000013351432e-10,
        1.000000013351432e-10,
        1.000000013351432e-10
      ],
      "type": "VEC3"
    },
    {
      "bufferView": 3,
      "byteOffset": 416,
      "componentType": 5126,
      "count": 3,
      "max": [
        3.599998712539673
      ],
      "min": [
        0.0
      ],
      "type": "SCALAR"
    },
    {
      "bufferView": 4,
      "byteOffset": 1248,
      "componentType": 5126,
      "count": 3,
      "max": [
        1.0,
        1.0,
        1.0
      ],
      "min": [
        1.000000013351432e-10,
        1.000000013351432e-10,
        1.000000013351432e-10
      ],
      "type": "VEC3"
    }
  ],
  "animations": [
    {
      "channels": [
        {
          "sampler": 0,
          "target": {
            "node": 107,
            "path": "scale"
          }
        },
        {
          "sampler": 1,
          "target": {
            "node": 104,
            "path": "scale"
          }
        },
        {
          "sampler": 2,
          "target": {
            "node": 101,
            "path": "scale"
          }
        },
        {
          "sampler": 3,
          "target": {
            "node": 98,
            "path": "scale"
          }
        },
        {
          "sampler": 4,
          "target": {
            "node": 95,
            "path": "scale"
          }
        },
        {
          "sampler": 5,
          "target": {
            "node": 92,
            "path": "scale"
          }
        },
        {
          "sampler": 6,
          "target": {
            "node": 89,
            "path": "scale"
          }
        },
        {
          "sampler": 7,
          "target": {
            "node": 86,
            "path": "scale"
          }
        },
        {
          "sampler": 8,
          "target": {
            "node": 83,
            "path": "scale"
          }
        },
        {
          "sampler": 9,
          "target": {
            "node": 80,
            "path": "scale"
          }
        },
        {
          "sampler": 10,
          "target": {
            "node": 77,
            "path": "scale"
          }
        },
        {
          "sampler": 11,
          "target": {
            "node": 74,
            "path": "scale"
          }
        },
        {
          "sampler": 12,
          "target": {
            "node": 71,
            "path": "scale"
          }
        },
        {
          "sampler": 13,
          "target": {
            "node": 68,
            "path": "scale"
          }
        },
        {
          "sampler": 14,
          "target": {
            "node": 65,
            "path": "scale"
          }
        },
        {
          "sampler": 15,
          "target": {
            "node": 62,
            "path": "scale"
          }
        },
        {
          "sampler": 16,
          "target": {
            "node": 59,
            "path": "scale"
          }
        },
        {
          "sampler": 17,
          "target": {
            "node": 56,
            "path": "scale"
          }
        },
        {
          "sampler": 18,
          "target": {
            "node": 53,
            "path": "scale"
          }
        },
        {
          "sampler": 19,
          "target": {
            "node": 50,
            "path": "scale"
          }
        },
        {
          "sampler": 20,
          "target": {
            "node": 47,
            "path": "scale"
          }
        },
        {
          "sampler": 21,
          "target": {
            "node": 44,
            "path": "scale"
          }
        },
        {
          "sampler": 22,
          "target": {
            "node": 41,
            "path": "scale"
          }
        },
        {
          "sampler": 23,
          "target": {
            "node": 38,
            "path": "scale"
          }
        },
        {
          "sampler": 24,
          "target": {
            "node": 35,
            "path": "scale"
          }
        },
        {
          "sampler": 25,
          "target": {
            "node": 32,
            "path": "scale"
          }
        },
        {
          "sampler": 26,
          "target": {
            "node": 29,
            "path": "scale"
          }
        },
        {
          "sampler": 27,
          "target": {
            "node": 26,
            "path": "scale"
          }
        },
        {
          "sampler": 28,
          "target": {
            "node": 23,
            "path": "scale"
          }
        },
        {
          "sampler": 29,
          "target": {
            "node": 20,
            "path": "scale"
          }
        },
        {
          "sampler": 30,
          "target": {
            "node": 17,
            "path": "scale"
          }
        },
        {
          "sampler": 31,
          "target": {
            "node": 14,
            "path": "scale"
          }
        },
        {
          "sampler": 32,
          "target": {
            "node": 11,
            "path": "scale"
          }
        },
        {
          "sampler": 33,
          "target": {
            "node": 8,
            "path": "scale"
          }
        },
        {
          "sampler": 34,
          "target": {
            "node": 5,
            "path": "scale"
          }
        },
        {
          "sampler": 35,
          "target": {
            "node": 2,
            "path": "scale"
          }
        }
      ],
      "name": "Object_0",
      "samplers": [
        {
          "input": 144,
          "interpolation": "LINEAR",
          "output": 145
        },
        {
          "input": 146,
          "interpolation": "LINEAR",
          "output": 147
        },
        {
          "input": 148,
          "interpolation": "LINEAR",
          "output": 149
        },
        {
          "input": 150,
          "interpolation": "LINEAR",
          "output": 151
        },
        {
          "input": 152,
          "interpolation": "LINEAR",
          "output": 153
        },
        {
          "input": 154,
          "interpolation": "LINEAR",
          "output": 155
        },
        {
          "input": 156,
          "interpolation": "LINEAR",
          "output": 157
        },
        {
          "input": 158,
          "interpolation": "LINEAR",
          "output": 159
        },
        {
          "input": 160,
          "interpolation": "LINEAR",
          "output": 161
        },
        {
          "input": 162,
          "interpolation": "LINEAR",
          "output": 163
        },
        {
          "input": 164,
          "interpolation": "LINEAR",
          "output": 165
        },
        {
          "input": 166,
          "interpolation": "LINEAR",
          "output": 167
        },
        {
          "input": 168,
          "interpolation": "LINEAR",
          "output": 169
        },
        {
          "input": 170,
          "interpolation": "LINEAR",
          "output": 171
        },
        {
          "input": 172,
          "interpolation": "LINEAR",
          "output": 173
        },
        {
          "input": 174,
          "interpolation": "LINEAR",
          "output": 175
        },
        {
          "input": 176,
          "interpolation": "LINEAR",
          "output": 177
        },
        {
          "input": 178,
          "interpolation": "LINEAR",
          "output": 179
        },
        {
          "input": 180,
          "interpolation": "LINEAR",
          "output": 181
        },
        {
          "input": 182,
          "interpolation": "LINEAR",
          "output": 183
        },
        {
          "input": 184,
          "interpolation": "LINEAR",
          "output": 185
        },
        {
          "input": 186,
          "interpolation": "LINEAR",
          "output": 187
        },
        {
          "input": 188,
          "interpolation": "LINEAR",
          "output": 189
        },
        {
          "input": 190,
          "interpolation": "LINEAR",
          "output": 191
        },
        {
          "input": 192,
          "interpolation": "LINEAR",
          "output": 193
        },
        {
          "input": 194,
          "interpolation": "LINEAR",
          "output": 195
        },
        {
          "input": 196,
          "interpolation": "LINEAR",
          "output": 197
        },
        {
          "input": 198,
          "interpolation": "LINEAR",
          "output": 199
        },
        {
          "input": 200,
          "interpolation": "LINEAR",
          "output": 201
        },
        {
          "input": 202,
          "interpolation": "LINEAR",
          "output": 203
        },
        {
          "input": 204,
          "interpolation": "LINEAR",
          "output": 205
        },
        {
          "input": 206,
          "interpolation": "LINEAR",
          "output": 207
        },
        {
          "input": 208,
          "interpolation": "LINEAR",
          "output": 209
        },
        {
          "input": 210,
          "interpolation": "LINEAR",
          "output": 211
        },
        {
          "input": 212,
          "interpolation": "LINEAR",
          "output": 213
        },
        {
          "input": 214,
          "interpolation": "LINEAR",
          "output": 215
        }
      ]
    }
  ],
  "asset": {
    "extras": {
      "author": "maxi.ariani (https://sketchfab.com/maxi.ariani)",
      "license": "CC-BY-4.0 (http://creativecommons.org/licenses/by/4.0/)",
      "source": "https://sketchfab.com/3d-models/machine-gun-muzzle-flash-test-effect-b96c7578853a4fa98c7893aa8f777636",
      "title": "Machine Gun Muzzle Flash Test effect"
    },
    "generator": "Sketchfab-12.66.0",
    "version": "2.0"
  },
  "bufferViews": [
    {
      "buffer": 0,
      "byteLength": 864,
      "name": "floatBufferViews",
      "target": 34963
    },
    {
      "buffer": 0,
      "byteLength": 1152,
      "byteOffset": 864,
      "byteStride": 8,
      "name": "floatBufferViews",
      "target": 34962
    },
    {
      "buffer": 0,
      "byteLength": 3456,
      "byteOffset": 2016,
      "byteStride": 12,
      "name": "floatBufferViews",
      "target": 34962
    },
    {
      "buffer": 0,
      "byteLength": 428,
      "byteOffset": 5472,
      "name": "floatBufferViews"
    },
    {
      "buffer": 0,
      "byteLength": 1284,
      "byteOffset": 5900,
      "byteStride": 12,
      "name": "floatBufferViews"
    }
  ],
  "buffers": [
    {
      "byteLength": 7184,
      "uri": "scene.bin"
    }
  ],
  "extensionsUsed": [
    "KHR_materials_unlit"
  ],
  "images": [
    {
      "uri": "textures/01___Default_baseColor.png"
    },
    {
      "uri": "textures/01___Default_emissive.png"
    }
  ],
  "materials": [
    {
      "alphaMode": "BLEND",
      "doubleSided": true,
      "emissiveTexture": {
        "index": 1
      },
      "extensions": {
        "KHR_materials_unlit": {}
      },
      "name": "01___Default",
      "pbrMetallicRoughness": {
        "baseColorTexture": {
          "index": 0
        },
        "metallicFactor": 0.0
      }
    }
  ],
  "meshes": [
    {
      "name": "Object_0",
      "primitives": [
        {
          "attributes": {
            "NORMAL": 1,
            "POSITION": 0,
            "TEXCOORD_0": 2
          },
          "indices": 3,
          "material": 0,
          "mode": 4
        }
      ]
    },
    {
      "name": "Object_1",
      "primitives": [
        {
          "attributes": {
            "NORMAL": 5,
            "POSITION": 4,
            "TEXCOORD_0": 6
          },
          "indices": 7,
          "material": 0,
          "mode": 4
        }
      ]
    },
    {
      "name": "Object_2",
      "primitives": [
        {
          "attributes": {
            "NORMAL": 9,
            "POSITION": 8,
            "TEXCOORD_0": 10
          },
          "indices": 11,
          "material": 0,
          "mode": 4
        }
      ]
    },
    {
      "name": "Object_3",
      "primitives": [
        {
          "attributes": {
            "NORMAL": 13,
            "POSITION": 12,
            "TEXCOORD_0": 14
          },
          "indices": 15,
          "material": 0,
          "mode": 4
        }
      ]
    },
    {
      "name": "Object_4",
      "primitives": [
        {
          "attributes": {
            "NORMAL": 17,
            "POSITION": 16,
            "TEXCOORD_0": 18
          },
          "indices": 19,
          "material": 0,
          "mode": 4
        }
      ]
    },
    {
      "name": "Object_5",
      "primitives": [
        {
          "attributes": {
            "NORMAL": 21,
            "POSITION": 20,
            "TEXCOORD_0": 22
          },
          "indices": 23,
          "material": 0,
          "mode": 4
        }
      ]
    },
    {
      "name": "Object_6",
      "primitives": [
        {
          "attributes": {
            "NORMAL": 25,
            "POSITION": 24,
            "TEXCOORD_0": 26
          },
          "indices": 27,
          "material": 0,
          "mode": 4
        }
      ]
    },
    {
      "name": "Object_7",
      "primitives": [
        {
          "attributes": {
            "NORMAL": 29,
            "POSITION": 28,
            "TEXCOORD_0": 30
          },
          "indices": 31,
          "material": 0,
          "mode": 4
        }
      ]
    },
    {
      "name": "Object_8",
      "primitives": [
        {
          "attributes": {
            "NORMAL": 33,
            "POSITION": 32,
            "TEXCOORD_0": 34
          },
          "indices": 35,
          "material": 0,
          "mode": 4
        }
      ]
    },
    {
      "name": "Object_9",
      "primitives": [
        {
          "attributes": {
            "NORMAL": 37,
            "POSITION": 36,
            "TEXCOORD_0": 38
          },
          "indices": 39,
          "material": 0,
          "mode": 4
        }
      ]
    },
    {
      "name": "Object_10",
      "primitives": [
        {
          "attributes": {
            "NORMAL": 41,
            "POSITION": 40,
            "TEXCOORD_0": 42
          },
          "indices": 43,
          "material": 0,
          "mode": 4
        }
      ]
    },
    {
      "name": "Object_11",
      "primitives": [
        {
          "attributes": {
            "NORMAL": 45,
            "POSITION": 44,
            "TEXCOORD_0": 46
          },
          "indices": 47,
          "material": 0,
          "mode": 4
        }
      ]
    },
    {
      "name": "Object_12",
      "primitives": [
        {
          "attributes": {
            "NORMAL": 49,
            "POSITION": 48,
            "TEXCOORD_0": 50
          },
          "indices": 51,
          "material": 0,
          "mode": 4
        }
      ]
    },
    {
      "name": "Object_13",
      "primitives": [
        {
          "attributes": {
            "NORMAL": 53,
            "POSITION": 52,
            "TEXCOORD_0": 54
          },
          "indices": 55,
          "material": 0,
          "mode": 4
        }
      ]
    },
    {
      "name": "Object_14",
      "primitives": [
        {
          "attributes": {
            "NORMAL": 57,
            "POSITION": 56,
            "TEXCOORD_0": 58
          },
          "indices": 59,
          "material": 0,
          "mode": 4
        }
      ]
    },
    {
      "name": "Object_15",
      "primitives": [
        {
          "attributes": {
            "NORMAL": 61,
            "POSITION": 60,
            "TEXCOORD_0": 62
          },
          "indices": 63,
          "material": 0,
          "mode": 4
        }
      ]
    },
    {
      "name": "Object_16",
      "primitives": [
        {
          "attributes": {
            "NORMAL": 65,
            "POSITION": 64,
            "TEXCOORD_0": 66
          },
          "indices": 67,
          "material": 0,
          "mode": 4
        }
      ]
    },
    {
      "name": "Object_17",
      "primitives": [
        {
          "attributes": {
            "NORMAL": 69,
            "POSITION": 68,
            "TEXCOORD_0": 70
          },
          "indices": 71,
          "material": 0,
          "mode": 4
        }
      ]
    },
    {
      "name": "Object_18",
      "primitives": [
        {
          "attributes": {
            "NORMAL": 73,
            "POSITION": 72,
            "TEXCOORD_0": 74
          },
          "indices": 75,
          "material": 0,
          "mode": 4
        }
      ]
    },
    {
      "name": "Object_19",
      "primitives": [
        {
          "attributes": {
            "NORMAL": 77,
            "POSITION": 76,
            "TEXCOORD_0": 78
          },
          "indices": 79,
          "material": 0,
          "mode": 4
        }
      ]
    },
    {
      "name": "Object_20",
      "primitives": [
        {
          "attributes": {
            "NORMAL": 81,
            "POSITION": 80,
            "TEXCOORD_0": 82
          },
          "indices": 83,
          "material": 0,
          "mode": 4
        }
      ]
    },
    {
      "name": "Object_21",
      "primitives": [
        {
          "attributes": {
            "NORMAL": 85,
            "POSITION": 84,
            "TEXCOORD_0": 86
          },
          "indices": 87,
          "material": 0,
          "mode": 4
        }
      ]
    },
    {
      "name": "Object_22",
      "primitives": [
        {
          "attributes": {
            "NORMAL": 89,
            "POSITION": 88,
            "TEXCOORD_0": 90
          },
          "indices": 91,
          "material": 0,
          "mode": 4
        }
      ]
    },
    {
      "name": "Object_23",
      "primitives": [
        {
          "attributes": {
            "NORMAL": 93,
            "POSITION": 92,
            "TEXCOORD_0": 94
          },
          "indices": 95,
          "material": 0,
          "mode": 4
        }
      ]
    },
    {
      "name": "Object_24",
      "primitives": [
        {
          "attributes": {
            "NORMAL": 97,
            "POSITION": 96,
            "TEXCOORD_0": 98
          },
          "indices": 99,
          "material": 0,
          "mode": 4
        }
      ]
    },
    {
      "name": "Object_25",
      "primitives": [
        {
          "attributes": {
            "NORMAL": 101,
            "POSITION": 100,
            "TEXCOORD_0": 102
          },
          "indices": 103,
          "material": 0,
          "mode": 4
        }
      ]
    },
    {
      "name": "Object_26",
      "primitives": [
        {
          "attributes": {
            "NORMAL": 105,
            "POSITION": 104,
            "TEXCOORD_0": 106
          },
          "indices": 107,
          "material": 0,
          "mode": 4
        }
      ]
    },
    {
      "name": "Object_27",
      "primitives": [
        {
          "attributes": {
            "NORMAL": 109,
            "POSITION": 108,
            "TEXCOORD_0": 110
          },
          "indices": 111,
          "material": 0,
          "mode": 4
        }
      ]
    },
    {
      "name": "Object_28",
      "primitives": [
        {
          "attributes": {
            "NORMAL": 113,
            "POSITION": 112,
            "TEXCOORD_0": 114
          },
          "indices": 115,
          "material": 0,
          "mode": 4
        }
      ]
    },
    {
      "name": "Object_29",
      "primitives": [
        {
          "attributes": {
            "NORMAL": 117,
            "POSITION": 116,
            "TEXCOORD_0": 118
          },
          "indices": 119,
          "material": 0,
          "mode": 4
        }
      ]
    },
    {
      "name": "Object_30",
      "primitives": [
        {
          "attributes": {
            "NORMAL": 121,
            "POSITION": 120,
            "TEXCOORD_0": 122
          },
          "indices": 123,
          "material": 0,
          "mode": 4
        }
      ]
    },
    {
      "name": "Object_31",
      "primitives": [
        {
          "attributes": {
            "NORMAL": 125,
            "POSITION": 124,
            "TEXCOORD_0": 126
          },
          "indices": 127,
          "material": 0,
          "mode": 4
        }
      ]
    },
    {
      "name": "Object_32",
      "primitives": [
        {
          "attributes": {
            "NORMAL": 129,
            "POSITION": 128,
            "TEXCOORD_0": 130
          },
          "indices": 131,
          "material": 0,
          "mode": 4
        }
      ]
    },
    {
      "name": "Object_33",
      "primitives": [
        {
          "attributes": {
            "NORMAL": 133,
            "POSITION": 132,
            "TEXCOORD_0": 134
          },
          "indices": 135,
          "material": 0,
          "mode": 4
        }
      ]
    },
    {
      "name": "Object_34",
      "primitives": [
        {
          "attributes": {
            "NORMAL": 137,
            "POSITION": 136,
            "TEXCOORD_0": 138
          },
          "indices": 139,
          "material": 0,
          "mode": 4
        }
      ]
    },
    {
      "name": "Object_35",
      "primitives": [
        {
          "attributes": {
            "NORMAL": 141,
            "POSITION": 140,
            "TEXCOORD_0": 142
          },
          "indices": 143,
          "material": 0,
          "mode": 4
        }
      ]
    }
  ],
  "nodes": [
    {
      "children": [
        1
      ],
      "matrix": [
        1.0,
        0.0,
        0.0,
        0.0,
        0.0,
        2.220446049250313e-16,
        -1.0,
        0.0,
        0.0,
        1.0,
        2.220446049250313e-16,
        0.0,
        0.0,
        0.0,
        0.0,
        1.0
      ],
      "name": "Sketchfab_model"
    },
    {
      "children": [
        2,
        5,
        8,
        11,
        14,
        17,
        20,
        23,
        26,
        29,
        32,
        35,
        38,
        41,
        44,
        47,
        50,
        53,
        56,
        59,
        62,
        65,
        68,
        71,
        74,
        77,
        80,
        83,
        86,
        89,
        92,
        95,
        98,
        101,
        104,
        107
      ],
      "name": "sketchfab.timeframe"
    },
    {
      "children": [
        3
      ],
      "name": "Object_2",
      "scale": [
        1.000000013351432e-10,
        1.000000013351432e-10,
        1.000000013351432e-10
      ]
    },
    {
      "children": [
        4
      ],
      "name": "frame_35"
    },
    {
      "mesh": 0,
      "name": "Object_4"
    },
    {
      "children": [
        6
      ],
      "name": "Object_5",
      "scale": [
        1.000000013351432e-10,
        1.000000013351432e-10,
        1.000000013351432e-10
      ]
    },
    {
      "children": [
        7
      ],
      "name": "frame_34"
    },
    {
      "mesh": 1,
      "name": "Object_7"
    },
    {
      "children": [
        9
      ],
      "name": "Object_8",
      "scale": [
        1.000000013351432e-10,
        1.000000013351432e-10,
        1.000000013351432e-10
      ]
    },
    {
      "children": [
        10
      ],
      "name": "frame_35"
    },
    {
      "mesh": 2,
      "name": "Object_10"
    },
    {
      "children": [
        12
      ],
      "name": "Object_11",
      "scale": [
        1.000000013351432e-10,
        1.000000013351432e-10,
        1.000000013351432e-10
      ]
    },
    {
      "children": [
        13
      ],
      "name": "frame_32"
    },
    {
      "mesh": 3,
      "name": "Object_13"
    },
    {
      "children": [
        15
      ],
      "name": "Object_14",
      "scale": [
        1.000000013351432e-10,
        1.000000013351432e-10,
        1.000000013351432e-10
      ]
    },
    {
      "children": [
        16
      ],
      "name": "frame_35"
    },
    {
      "mesh": 4,
      "name": "Object_16"
    },
    {
      "children": [
        18
      ],
      "name": "Object_17",
      "scale": [
        1.000000013351432e-10,
        1.000000013351432e-10,
        1.000000013351432e-10
      ]
    },
    {
      "children": [
        19
      ],
      "name": "frame_30"
    },
    {
      "mesh": 5,
      "name": "Object_19"
    },
    {
      "children": [
        21
      ],
      "name": "Object_20",
      "scale": [
        1.000000013351432e-10,
        1.000000013351432e-10,
        1.000000013351432e-10
      ]
    },
    {
      "children": [
        22
      ],
      "name": "frame_35"
    },
    {
      "mesh": 6,
      "name": "Object_22"
    },
    {
      "children": [
        24
      ],
      "name": "Object_23",
      "scale": [
        1.000000013351432e-10,
        1.000000013351432e-10,
        1.000000013351432e-10
      ]
    },
    {
      "children": [
        25
      ],
      "name": "frame_28"
    },
    {
      "mesh": 7,
      "name": "Object_25"
    },
    {
      "children": [
        27
      ],
      "name": "Object_26",
      "scale": [
        1.000000013351432e-10,
        1.000000013351432e-10,
        1.000000013351432e-10
      ]
    },
    {
      "children": [
        28
      ],
      "name": "frame_35"
    },
    {
      "mesh": 8,
      "name": "Object_28"
    },
    {
      "children": [
        30
      ],
      "name": "Object_29",
      "scale": [
        1.000000013351432e-10,
        1.000000013351432e-10,
        1.000000013351432e-10
      ]
    },
    {
      "children": [
        31
      ],
      "name": "frame_26"
    },
    {
      "mesh": 9,
      "name": "Object_31"
    },
    {
      "children": [
        33
      ],
      "name": "Object_32",
      "scale": [
        1.000000013351432e-10,
        1.000000013351432e-10,
        1.000000013351432e-10
      ]
    },
    {
      "children": [
        34
      ],
      "name": "frame_35"
    },
    {
      "mesh": 10,
      "name": "Object_34"
    },
    {
      "children": [
        36
      ],
      "name": "Object_35",
      "scale": [
        1.000000013351432e-10,
        1.000000013351432e-10,
        1.000000013351432e-10
      ]
    },
    {
      "children": [
        37
      ],
      "name": "frame_24"
    },
    {
      "mesh": 11,
      "name": "Object_37"
    },
    {
      "children": [
        39
      ],
      "name": "Object_38",
      "scale": [
        1.000000013351432e-10,
        1.000000013351432e-10,
        1.000000013351432e-10
      ]
    },
    {
      "children": [
        40
      ],
      "name": "frame_35"
    },
    {
      "mesh": 12,
      "name": "Object_40"
    },
    {
      "children": [
        42
      ],
      "name": "Object_41",
      "scale": [
        1.000000013351432e-10,
        1.000000013351432e-10,
        1.000000013351432e-10
      ]
    },
    {
      "children": [
        43
      ],
      "name": "frame_22"
    },
    {
      "mesh": 13,
      "name": "Object_43"
    },
    {
      "children": [
        45
      ],
      "name": "Object_44",
      "scale": [
        1.000000013351432e-10,
        1.000000013351432e-10,
        1.000000013351432e-10
      ]
    },
    {
      "children": [
        46
      ],
      "name": "frame_35"
    },
    {
      "mesh": 14,
      "name": "Object_46"
    },
    {
      "children": [
        48
      ],
      "name": "Object_47",
      "scale": [
        1.000000013351432e-10,
        1.000000013351432e-10,
        1.000000013351432e-10
      ]
    },
    {
      "children": [
        49
      ],
      "name": "frame_20"
    },
    {
      "mesh": 15,
      "name": "Object_49"
    },
    {
      "children": [
        51
      ],
      "name": "Object_50",
      "scale": [
        1.000000013351432e-10,
        1.000000013351432e-10,
        1.000000013351432e-10
      ]
    },
    {
      "children": [
        52
      ],
      "name": "frame_35"
    },
    {
      "mesh": 16,
      "name": "Object_52"
    },
    {
      "children": [
        54
      ],
      "name": "Object_53",
      "scale": [
        1.000000013351432e-10,
        1.000000013351432e-10,
        1.000000013351432e-10
      ]
    },
    {
      "children": [
        55
      ],
      "name": "frame_18"
    },
    {
      "mesh": 17,
      "name": "Object_55"
    },
    {
      "children": [
        57
      ],
      "name": "Object_56",
      "scale": [
        1.000000013351432e-10,
        1.000000013351432e-10,
        1.000000013351432e-10
      ]
    },
    {
      "children": [
        58
      ],
      "name": "frame_35"
    },
    {
      "mesh": 18,
      "name": "Object_58"
    },
    {
      "children": [
        60
      ],
      "name": "Object_59",
      "scale": [
        1.000000013351432e-10,
        1.000000013351432e-10,
        1.000000013351432e-10
      ]
    },
    {
      "children": [
        61
      ],
      "name": "frame_16"
    },
    {
      "mesh": 19,
      "name": "Object_61"
    },
    {
      "children": [
        63
      ],
      "name": "Object_62",
      "scale": [
        1.000000013351432e-10,
        1.000000013351432e-10,
        1.000000013351432e-10
      ]
    },
    {
      "children": [
        64
      ],
      "name": "frame_35"
    },
    {
      "mesh": 20,
      "name": "Object_64"
    },
    {
      "children": [
        66
      ],
      "name": "Object_65",
      "scale": [
        1.000000013351432e-10,
        1.000000013351432e-10,
        1.000000013351432e-10
      ]
    },
    {
      "children": [
        67
      ],
      "name": "frame_14"
    },
    {
      "mesh": 21,
      "name": "Object_67"
    },
    {
      "children": [
        69
      ],
      "name": "Object_68",
      "scale": [
        1.000000013351432e-10,
        1.000000013351432e-10,
        1.000000013351432e-10
      ]
    },
    {
      "children": [
        70
      ],
      "name": "frame_35"
    },
    {
      "mesh": 22,
      "name": "Object_70"
    },
    {
      "children": [
        72
      ],
      "name": "Object_71",
      "scale": [
        1.000000013351432e-10,
        1.000000013351432e-10,
        1.000000013351432e-10
      ]
    },
    {
      "children": [
        73
      ],
      "name": "frame_12"
    },
    {
      "mesh": 23,
      "name": "Object_73"
    },
    {
      "children": [
        75
      ],
      "name": "Object_74",
      "scale": [
        1.000000013351432e-10,
        1.000000013351432e-10,
        1.000000013351432e-10
      ]
    },
    {
      "children": [
        76
      ],
      "name": "frame_35"
    },
    {
      "mesh": 24,
      "name": "Object_76"
    },
    {
      "children": [
        78
      ],
      "name": "Object_77",
      "scale": [
        1.000000013351432e-10,
        1.000000013351432e-10,
        1.000000013351432e-10
      ]
    },
    {
      "children": [
        79
      ],
      "name": "frame_10"
    },
    {
      "mesh": 25,
      "name": "Object_79"
    },
    {
      "children": [
        81
      ],
      "name": "Object_80",
      "scale": [
        1.000000013351432e-10,
        1.000000013351432e-10,
        1.000000013351432e-10
      ]
    },
    {
      "children": [
        82
      ],
      "name": "frame_35"
    },
    {
      "mesh": 26,
      "name": "Object_82"
    },
    {
      "children": [
        84
      ],
      "name": "Object_83",
      "scale": [
        1.000000013351432e-10,
        1.000000013351432e-10,
        1.000000013351432e-10
      ]
    },
    {
      "children": [
        85
      ],
      "name": "frame_8"
    },
    {
      "mesh": 27,
      "name": "Object_85"
    },
    {
      "children": [
        87
      ],
      "name": "Object_86",
      "scale": [
        1.000000013351432e-10,
        1.000000013351432e-10,
        1.000000013351432e-10
      ]
    },
    {
      "children": [
        88
      ],
      "name": "frame_35"
    },
    {
      "mesh": 28,
      "name": "Object_88"
    },
    {
      "children": [
        90
      ],
      "name": "Object_89",
      "scale": [
        1.000000013351432e-10,
        1.000000013351432e-10,
        1.000000013351432e-10
      ]
    },
    {
      "children": [
        91
      ],
      "name": "frame_6"
    },
    {
      "mesh": 29,
      "name": "Object_91"
    },
    {
      "children": [
        93
      ],
      "name": "Object_92",
      "scale": [
        1.000000013351432e-10,
        1.000000013351432e-10,
        1.000000013351432e-10
      ]
    },
    {
      "children": [
        94
      ],
      "name": "frame_35"
    },
    {
      "mesh": 30,
      "name": "Object_94"
    },
    {
      "children": [
        96
      ],
      "name": "Object_95",
      "scale": [
        1.000000013351432e-10,
        1.000000013351432e-10,
        1.000000013351432e-10
      ]
    },
    {
      "children": [
        97
      ],
      "name": "frame_4"
    },
    {
      "mesh": 31,
      "name": "Object_97"
    },
    {
      "children": [
        99
      ],
      "name": "Object_98",
      "scale": [
        1.000000013351432e-10,
        1.000000013351432e-10,
        1.000000013351432e-10
      ]
    },
    {
      "children": [
        100
      ],
      "name": "frame_35"
    },
    {
      "mesh": 32,
      "name": "Object_100"
    },
    {
      "children": [
        102
      ],
      "name": "Object_101",
      "scale": [
        1.000000013351432e-10,
        1.000000013351432e-10,
        1.000000013351432e-10
      ]
    },
    {
      "children": [
        103
      ],
      "name": "frame_2"
    },
    {
      "mesh": 33,
      "name": "Object_103"
    },
    {
      "children": [
        105
      ],
      "name": "Object_104",
      "scale": [
        1.000000013351432e-10,
        1.000000013351432e-10,
        1.000000013351432e-10
      ]
    },
    {
      "children": [
        106
      ],
      "name": "frame_35"
    },
    {
      "mesh": 34,
      "name": "Object_106"
    },
    {
      "children": [
        108
      ],
      "name": "Object_107"
    },
    {
      "children": [
        109
      ],
      "name": "frame_0"
    },
    {
      "mesh": 35,
      "name": "Object_109"
    }
  ],
  "samplers": [
    {
      "magFilter": 9729,
      "minFilter": 9987,
      "wrapS": 10497,
      "wrapT": 10497
    }
  ],
  "scene": 0,
  "scenes": [
    {
      "name": "Sketchfab_Scene",
      "nodes": [
        0
      ]
    }
  ],
  "textures": [
    {
      "sampler": 0,
      "source": 0
    },
    {
      "sampler": 0,
      "source": 1
    }
  ]
}
